<svg height="512pt" viewBox="0 0 512 512" width="512pt" xmlns="http://www.w3.org/2000/svg"><path d="m256 0c-140.699219 0-256 115.300781-256 256s115.300781 256 256 256 255-115.300781 255-256-114.300781-256-255-256zm0 0" fill="#ff637b"/><path d="m511 256c0 140.699219-114.300781 256-255 256v-512c140.699219 0 255 115.300781 255 256zm0 0" fill="#e63950"/><path d="m394 118-10.800781-10.5-63.597657 63.601562 10.796876 10.496094c40.800781 41.101563 40.800781 107.703125 0 148.800782-20.398438 20.402343-47.398438 30.601562-74.398438 30.601562s-54-10.199219-74.398438-30.601562c-40.800781-41.097657-40.800781-107.699219 0-148.800782l10.800782-10.5-63.601563-63.597656-10.800781 10.496094c-75.898438 76.203125-75.898438 199.804687 0 276 38.097656 37.804687 88.199219 58.003906 138 58.003906s99.902344-20.199219 138-58c75.898438-76.199219 75.898438-199.800781 0-276zm0 0" fill="#e6ffff"/><path d="m211 60v241h90v-241zm0 0" fill="#e6ffff"/><g fill="#d9f2ff"><path d="m256 60h45v241h-45zm0 0"/><path d="m394 394c-38.097656 37.800781-88.199219 58-138 58v-91c27 0 54-10.199219 74.398438-30.601562 40.800781-41.097657 40.800781-107.699219 0-148.800782l-10.800782-10.5 63.601563-63.597656 10.800781 10.496094c75.898438 76.203125 75.898438 199.804687 0 276.003906zm0 0"/></g></svg>